<?xml version="1.0" encoding="UTF-8" standalone="no"?>
<!-- Created with Inkscape (http://www.inkscape.org/) -->

<svg
   width="1200"
   height="630"
   viewBox="0 0 317.5 166.6875"
   version="1.1"
   id="svg5"
   inkscape:version="1.1 (c68e22c387, 2021-05-23)"
   sodipodi:docname="OG.svg"
   xmlns:inkscape="http://www.inkscape.org/namespaces/inkscape"
   xmlns:sodipodi="http://sodipodi.sourceforge.net/DTD/sodipodi-0.dtd"
   xmlns="http://www.w3.org/2000/svg"
   xmlns:svg="http://www.w3.org/2000/svg">
  <sodipodi:namedview
     id="namedview7"
     pagecolor="#cdcdcd"
     bordercolor="#999999"
     borderopacity="1"
     inkscape:pageshadow="0"
     inkscape:pageopacity="0"
     inkscape:pagecheckerboard="0"
     inkscape:document-units="px"
     showgrid="false"
     inkscape:snap-object-midpoints="true"
     inkscape:object-paths="true"
     inkscape:snap-nodes="false"
     inkscape:zoom="0.62166667"
     inkscape:cx="489.81233"
     inkscape:cy="291.9571"
     inkscape:window-width="1280"
     inkscape:window-height="961"
     inkscape:window-x="-8"
     inkscape:window-y="-8"
     inkscape:window-maximized="1"
     inkscape:current-layer="layer1" />
  <defs
     id="defs2">
    <filter
       inkscape:collect="always"
       style="color-interpolation-filters:sRGB"
       id="filter4201"
       x="-0.26769592"
       y="-0.21616984"
       width="1.5353918"
       height="1.4323397">
      <feGaussianBlur
         inkscape:collect="always"
         stdDeviation="0.24430176"
         id="feGaussianBlur4203" />
    </filter>
    <filter
       inkscape:collect="always"
       style="color-interpolation-filters:sRGB"
       id="filter5356"
       x="-0.096829643"
       y="-0.091070514"
       width="1.1939043"
       height="1.1823827">
      <feGaussianBlur
         inkscape:collect="always"
         stdDeviation="0.5010842"
         id="feGaussianBlur5358" />
    </filter>
  </defs>
  <g
     inkscape:label="Camada 1"
     inkscape:groupmode="layer"
     id="layer1">
    <rect
       style="fill:#ffffff;stroke:none;stroke-width:0.738716;stroke-linecap:square;paint-order:stroke fill markers"
       id="rect950"
       width="317.5"
       height="166.6875"
       x="0"
       y="0" />
    <g
       id="g5369"
       transform="matrix(3.8001017,0,0,3.8001017,-126.4425,-426.84607)">
      <path
         id="path5318"
         style="color:#000000;fill:#000000;stroke:#000000;stroke-width:1.85208;stroke-linecap:round;stroke-linejoin:round;stroke-miterlimit:4;stroke-dasharray:none;stroke-opacity:1;paint-order:stroke fill markers;filter:url(#filter5356)"
         d="m 73.600262,124.35318 c -2.35884,-2.35884 -6.223123,-2.35884 -8.581961,0 -2.358838,2.35884 -2.35884,6.22312 0,8.58196 2.051169,2.05117 5.240299,2.31816 7.588419,0.80207 l 4.950176,4.95018 -1.864309,1.86431 c -0.46404,0.46403 -0.464042,1.24022 0,1.70426 0.464042,0.46404 1.240222,0.46404 1.704262,0 l 1.864308,-1.86431 1.615833,1.61583 -1.864309,1.86431 c -0.464047,0.46405 -0.464042,1.24022 -2e-6,1.70426 0.464042,0.46404 1.240222,0.46404 1.704262,0 l 1.864309,-1.86431 0.458586,0.45859 c 0.488634,0.48863 1.306616,0.48826 1.795248,-3.7e-4 0.488631,-0.48863 0.487529,-1.30516 -0.0011,-1.79378 L 74.401235,131.94343 c 1.517278,-2.34828 1.250675,-5.5386 -0.800973,-7.59025 z m -1.871616,1.87162 c 1.347738,1.34773 1.349199,3.49245 0.0015,4.84018 -1.347738,1.34774 -3.494278,1.34811 -4.842016,3.7e-4 -1.347738,-1.34774 -1.346275,-3.49318 0.0015,-4.84092 1.347739,-1.34774 3.491354,-1.34737 4.839092,3.7e-4 z" />
      <g
         id="g5316"
         transform="translate(12.556193,21.355415)">
        <g
           id="g4295"
           transform="translate(-1.7709621)">
          <path
             d="m 76.9407,111.48093 h -4.6612 v -0.7183 L 75.643625,106.52 h -3.291778 v -0.81131 h 4.501003 v 0.69246 l -3.379628,4.25812 H 76.9407 Z"
             id="path4157"
             style="font-size:10.5833px;line-height:1.25;-inkscape-font-specification:sans-serif;mix-blend-mode:normal;fill:#000000;fill-opacity:1;stroke:#000000;stroke-width:1.32292;stroke-linecap:round;stroke-linejoin:round;stroke-miterlimit:4;stroke-dasharray:none;stroke-opacity:1;paint-order:stroke fill markers;filter:url(#filter4201)" />
          <path
             d="m 76.9407,111.48093 h -4.6612 v -0.7183 L 75.643625,106.52 h -3.291778 v -0.81131 h 4.501003 v 0.69246 l -3.379628,4.25812 H 76.9407 Z"
             id="path3338"
             style="font-size:10.5833px;line-height:1.25;-inkscape-font-specification:sans-serif;fill:#4717f6;fill-opacity:1;stroke:#ffffff;stroke-width:0.79375;stroke-linecap:round;stroke-linejoin:round;stroke-miterlimit:4;stroke-dasharray:none;stroke-opacity:1;paint-order:stroke fill markers" />
        </g>
        <g
           id="g4291">
          <path
             d="m 70.493237,111.48093 h -0.971514 v -0.60462 q -0.418577,0.36174 -0.873329,0.56328 -0.454751,0.20153 -0.987016,0.20153 -1.033526,0 -1.643306,-0.79581 -0.604612,-0.79582 -0.604612,-2.20658 0,-0.7338 0.206705,-1.30741 0.211873,-0.5736 0.568439,-0.97668 0.351399,-0.39274 0.816485,-0.59944 0.470254,-0.20671 0.971514,-0.20671 0.454751,0 0.80615,0.0982 0.351398,0.093 0.73897,0.29455 v -2.50113 h 0.971514 z m -0.971514,-1.4211 v -3.31245 q -0.392739,-0.1757 -0.702797,-0.24288 -0.310058,-0.0672 -0.676959,-0.0672 -0.816485,0 -1.271236,0.56844 -0.454751,0.56844 -0.454751,1.6123 0,1.02836 0.351398,1.56579 0.351399,0.53227 1.126543,0.53227 0.41341,0 0.837155,-0.18087 0.423746,-0.18603 0.790647,-0.47542 z"
             id="path4155"
             style="font-size:10.5833px;line-height:1.25;-inkscape-font-specification:sans-serif;mix-blend-mode:normal;fill:#000000;fill-opacity:1;stroke:#000000;stroke-width:1.32292;stroke-linecap:round;stroke-linejoin:round;stroke-miterlimit:4;stroke-dasharray:none;stroke-opacity:1;paint-order:stroke fill markers;filter:url(#filter4201)" />
          <path
             d="m 70.493237,111.48093 h -0.971514 v -0.60462 q -0.418577,0.36174 -0.873329,0.56328 -0.454751,0.20153 -0.987016,0.20153 -1.033526,0 -1.643306,-0.79581 -0.604612,-0.79582 -0.604612,-2.20658 0,-0.7338 0.206705,-1.30741 0.211873,-0.5736 0.568439,-0.97668 0.351399,-0.39274 0.816485,-0.59944 0.470254,-0.20671 0.971514,-0.20671 0.454751,0 0.80615,0.0982 0.351398,0.093 0.73897,0.29455 v -2.50113 h 0.971514 z m -0.971514,-1.4211 v -3.31245 q -0.392739,-0.1757 -0.702797,-0.24288 -0.310058,-0.0672 -0.676959,-0.0672 -0.816485,0 -1.271236,0.56844 -0.454751,0.56844 -0.454751,1.6123 0,1.02836 0.351398,1.56579 0.351399,0.53227 1.126543,0.53227 0.41341,0 0.837155,-0.18087 0.423746,-0.18603 0.790647,-0.47542 z"
             id="path3336"
             style="font-size:10.5833px;line-height:1.25;-inkscape-font-specification:sans-serif;fill:#4717f6;fill-opacity:1;stroke:#ffffff;stroke-width:0.79375;stroke-linecap:round;stroke-linejoin:round;stroke-miterlimit:4;stroke-dasharray:none;stroke-opacity:1;paint-order:stroke fill markers" />
        </g>
      </g>
      <path
         id="path4319"
         style="color:#000000;fill:#4717f6;stroke:#ffffff;stroke-width:1.00012;stroke-linecap:round;stroke-linejoin:round;stroke-miterlimit:4;stroke-dasharray:none;stroke-opacity:1;paint-order:stroke fill markers"
         d="m 73.600262,124.35318 c -2.35884,-2.35884 -6.223123,-2.35884 -8.581961,0 -2.358838,2.35884 -2.35884,6.22312 0,8.58196 2.051169,2.05117 5.240299,2.31816 7.588419,0.80207 l 4.950176,4.95018 -1.864309,1.86431 c -0.46404,0.46403 -0.464042,1.24022 0,1.70426 0.464042,0.46404 1.240222,0.46404 1.704262,0 l 1.864308,-1.86431 1.615833,1.61583 -1.864309,1.86431 c -0.464047,0.46405 -0.464042,1.24022 -2e-6,1.70426 0.464042,0.46404 1.240222,0.46404 1.704262,0 l 1.864309,-1.86431 0.458586,0.45859 c 0.488634,0.48863 1.306616,0.48826 1.795248,-3.7e-4 0.488631,-0.48863 0.487529,-1.30516 -0.0011,-1.79378 L 74.401235,131.94343 c 1.517278,-2.34828 1.250675,-5.5386 -0.800973,-7.59025 z m -1.871616,1.87162 c 1.347738,1.34773 1.349199,3.49245 0.0015,4.84018 -1.347738,1.34774 -3.494278,1.34811 -4.842016,3.7e-4 -1.347738,-1.34774 -1.346275,-3.49318 0.0015,-4.84092 1.347739,-1.34774 3.491354,-1.34737 4.839092,3.7e-4 z" />
    </g>
    <path
       id="path1290"
       style="fill:#4717f6;fill-opacity:1;stroke:none;stroke-width:0.150688;stroke-linecap:square;paint-order:stroke fill markers"
       d="m 66.852451,67.797202 a 8.6817037,8.2780054 0 0 0 -8.681741,8.277932 h -0.467638 c -1.611956,0 -2.909694,1.297735 -2.909694,2.909692 V 91.25387 c 0,1.61196 1.297738,2.9097 2.909694,2.9097 h 18.298641 c 1.611957,0 2.909694,-1.29774 2.909694,-2.9097 V 78.984826 c 0,-1.611957 -1.297737,-2.909692 -2.909694,-2.909692 h -0.467638 a 8.6817037,8.2780054 0 0 0 -8.681624,-8.277932 z m 0,2.521665 a 6.0370137,5.7562926 0 0 1 6.037015,5.756267 h -12.07403 a 6.0370137,5.7562926 0 0 1 6.037015,-5.756267 z m 0,10.915708 a 4.0742348,3.8847833 0 0 1 4.074138,3.884775 4.0742348,3.8847833 0 0 1 -4.074138,3.88477 4.0742348,3.8847833 0 0 1 -4.074254,-3.88477 4.0742348,3.8847833 0 0 1 4.074254,-3.884775 z m 0,1.955341 a 2.0235686,1.9294727 0 0 0 -2.023643,1.929434 2.0235686,1.9294727 0 0 0 2.023643,1.92943 2.0235686,1.9294727 0 0 0 2.023526,-1.92943 2.0235686,1.9294727 0 0 0 -2.023526,-1.929434 z" />
    <path
       id="path1554"
       style="fill:#4717f6;fill-opacity:1;stroke:none;stroke-width:0.150688;stroke-linecap:square;paint-order:stroke fill markers"
       d="m 88.713563,17.528509 a 8.6817037,8.2780054 13.75499 0 0 -10.401008,5.97627 l -0.454227,-0.11119 c -1.565727,-0.383276 -3.134811,0.568678 -3.518087,2.134406 L 71.423025,37.44518 c -0.383277,1.565731 0.56868,3.134817 2.134407,3.518093 l 17.773861,4.350877 c 1.565728,0.383275 3.134812,-0.568684 3.518089,-2.134415 l 2.917216,-11.917184 c 0.383276,-1.565729 -0.568681,-3.13481 -2.134409,-3.518086 l -0.454227,-0.11119 A 8.6817037,8.2780054 13.75499 0 0 88.713563,17.528509 Z m -0.599577,2.449347 a 6.0370137,5.7562926 13.75499 0 1 4.495211,7.026609 L 80.881434,24.133617 a 6.0370137,5.7562926 13.75499 0 1 7.232552,-4.155761 z m -2.595433,10.60266 a 4.0742348,3.8847833 13.75499 0 1 3.033612,4.742075 4.0742348,3.8847833 13.75499 0 1 -4.880981,2.80465 4.0742348,3.8847833 13.75499 0 1 -3.033726,-4.742097 4.0742348,3.8847833 13.75499 0 1 4.881095,-2.804628 z m -0.464923,1.899265 a 2.0235686,1.9294727 13.75499 0 0 -2.42437,1.392937 2.0235686,1.9294727 13.75499 0 0 1.506846,2.35526 2.0235686,1.9294727 13.75499 0 0 2.424256,-1.392962 2.0235686,1.9294727 13.75499 0 0 -1.506732,-2.355235 z" />
    <path
       id="path1556"
       style="fill:#4717f6;fill-opacity:1;stroke:none;stroke-width:0.150688;stroke-linecap:square;paint-order:stroke fill markers"
       d="m 98.085273,117.31432 a 8.2780054,8.6817037 81.431311 0 0 -7.351465,9.47907 l -0.462418,0.0697 c -1.593964,0.24017 -2.683859,1.71678 -2.443687,3.31074 l 1.828027,12.1321 c 0.240174,1.59397 1.716783,2.68386 3.310747,2.44369 l 18.094393,-2.7264 c 1.59396,-0.24018 2.68386,-1.71679 2.44369,-3.31076 l -1.82803,-12.1321 c -0.24018,-1.59396 -1.71679,-2.68385 -3.31075,-2.44368 l -0.46242,0.0697 a 8.2780054,8.6817037 81.431311 0 0 -9.818087,-6.89202 z m 0.375715,2.49352 a 5.7562926,6.0370137 81.431311 0 1 6.827282,4.79253 l -11.939257,1.79897 a 5.7562926,6.0370137 81.431311 0 1 5.111975,-6.5915 z m 1.626382,10.79386 a 3.8847833,4.0742348 81.431311 0 1 4.60748,3.2344 3.8847833,4.0742348 81.431311 0 1 -3.44985,4.44843 3.8847833,4.0742348 81.431311 0 1 -4.607591,-3.23436 3.8847833,4.0742348 81.431311 0 1 3.449961,-4.44847 z m 0.29134,1.93352 a 1.9294727,2.0235686 81.431311 0 0 -1.713579,2.20941 1.9294727,2.0235686 81.431311 0 0 2.288529,1.60639 1.9294727,2.0235686 81.431311 0 0 1.71347,-2.20939 1.9294727,2.0235686 81.431311 0 0 -2.28842,-1.60641 z" />
    <path
       id="path1558"
       style="fill:#4717f6;fill-opacity:1;stroke:none;stroke-width:0.150688;stroke-linecap:square;paint-order:stroke fill markers"
       d="m 224.99607,19.959848 a 8.2780054,8.6817037 66.351943 0 0 -4.63228,11.065203 l -0.42837,0.187579 c -1.47659,0.646581 -2.14481,2.355887 -1.49823,3.832483 l 4.92133,11.238771 c 0.64659,1.476598 2.3559,2.144816 3.83249,1.498235 l 16.76205,-7.339909 c 1.47658,-0.646581 2.1448,-2.355892 1.49822,-3.83249 l -4.92133,-11.238771 c -0.64658,-1.476595 -2.35589,-2.144809 -3.83248,-1.498228 L 236.2691,24.0603 a 8.2780054,8.6817037 66.351943 0 0 -11.27303,-4.100452 z m 1.01148,2.309912 a 5.7562926,6.0370137 66.351943 0 1 7.83901,2.851339 l -11.06013,4.843105 a 5.7562926,6.0370137 66.351943 0 1 3.22112,-7.694444 z m 4.37849,9.999079 a 3.8847833,4.0742348 66.351943 0 1 5.29027,1.924348 3.8847833,4.0742348 66.351943 0 1 -2.17377,5.192762 3.8847833,4.0742348 66.351943 0 1 -5.29038,-1.9243 3.8847833,4.0742348 66.351943 0 1 2.17388,-5.19281 z m 0.78432,1.791144 a 1.9294727,2.0235686 66.351943 0 0 -1.07978,2.579131 1.9294727,2.0235686 66.351943 0 0 2.62763,0.955691 1.9294727,2.0235686 66.351943 0 0 1.07968,-2.579082 1.9294727,2.0235686 66.351943 0 0 -2.62753,-0.95574 z" />
    <path
       id="path1552"
       style="fill:#4717f6;fill-opacity:1;stroke:none;stroke-width:0.150688;stroke-linecap:square;paint-order:stroke fill markers"
       d="m 245.73654,81.892015 a 8.2780054,8.6817037 85.012722 0 0 -7.92924,9.001335 l -0.46587,0.04065 c -1.60585,0.140135 -2.78585,1.545775 -2.64572,3.151629 l 1.06661,12.222591 c 0.14013,1.60586 1.54577,2.78587 3.15162,2.64573 l 18.22936,-1.59078 c 1.60586,-0.14014 2.78586,-1.54578 2.64573,-3.15164 l -1.06661,-12.22259 c -0.14013,-1.605855 -1.54577,-2.785859 -3.15162,-2.645724 l -0.46587,0.04065 a 8.2780054,8.6817037 85.012722 0 0 -9.36839,-7.491859 z m 0.21922,2.512118 a 5.7562926,6.0370137 85.012722 0 1 6.51457,5.209649 l -12.02832,1.049651 a 5.7562926,6.0370137 85.012722 0 1 5.51375,-6.2593 z m 0.94895,10.874381 a 3.8847833,4.0742348 85.012722 0 1 4.39643,3.515884 3.8847833,4.0742348 85.012722 0 1 -3.72099,4.224242 3.8847833,4.0742348 85.012722 0 1 -4.39656,-3.515864 3.8847833,4.0742348 85.012722 0 1 3.72112,-4.224262 z m 0.16998,1.947939 a 1.9294727,2.0235686 85.012722 0 0 -1.84824,2.098053 1.9294727,2.0235686 85.012722 0 0 2.18371,1.746204 1.9294727,2.0235686 85.012722 0 0 1.84813,-2.098042 1.9294727,2.0235686 85.012722 0 0 -2.1836,-1.746215 z" />
  </g>
</svg>
